<svg width="19" height="19" viewBox="0 0 19 19" fill="none" xmlns="http://www.w3.org/2000/svg">
<path d="M15.9164 15.6547C17.2883 14.0893 18.1239 12.0314 18.1239 9.77878C18.1239 7.43507 17.2194 5.30259 15.7474 3.71576C15.7461 3.71392 15.7434 3.71148 15.7434 3.71148C14.2101 2.06107 12.0617 1.00461 9.67215 0.921766L9.50127 0.916875C9.45719 0.915347 9.41311 0.913818 9.36873 0.913818C9.32435 0.913818 9.28028 0.915347 9.2362 0.916875L9.06623 0.921461C6.67666 1.0043 4.52801 2.06107 2.99464 3.71148C2.99464 3.71148 2.99162 3.71362 2.99072 3.71545C1.51833 5.30198 0.613525 7.43507 0.613525 9.77878C0.613525 12.0314 1.44919 14.0893 2.82105 15.6547C2.82286 15.6575 2.82286 15.6605 2.82497 15.6633C2.8304 15.6709 2.83825 15.6746 2.84399 15.6816C4.38551 17.4265 6.59726 18.5505 9.06562 18.6361L9.2359 18.641C9.28028 18.6422 9.32435 18.6437 9.36873 18.6437C9.41311 18.6437 9.45719 18.6422 9.50127 18.6407L9.67124 18.6361C12.1423 18.5502 14.3568 17.4237 15.8983 15.6752C15.9022 15.67 15.9086 15.6685 15.9122 15.663C15.9146 15.6605 15.9146 15.6575 15.9164 15.6547ZM1.22488 10.0845H4.84863C4.88275 11.3803 5.13272 12.6394 5.57773 13.8191C4.71911 14.1336 3.89824 14.5555 3.12899 15.0819C1.99775 13.7194 1.29371 11.9828 1.22488 10.0845ZM3.29383 4.28342C4.04496 4.77803 4.84471 5.1742 5.67887 5.4701C5.16804 6.72557 4.88546 8.07916 4.84863 9.4731H1.22488C1.29704 7.48398 2.06629 5.67278 3.29383 4.28342ZM17.5126 9.4731H13.8888C13.852 8.07916 13.5694 6.72557 13.0586 5.4701C13.8928 5.1742 14.6925 4.77803 15.4436 4.28342C16.6712 5.67278 17.4404 7.48398 17.5126 9.4731ZM9.06683 5.48783C8.19403 5.46277 7.33722 5.33102 6.5094 5.09564C7.12136 3.82458 7.98541 2.67734 9.06683 1.72206V5.48783ZM9.06683 6.09921V9.4731H5.45244C5.48957 8.14396 5.76491 6.85487 6.25731 5.65963C7.16484 5.92589 8.10708 6.07323 9.06683 6.09921ZM9.67064 6.09921C10.6304 6.07323 11.5726 5.92619 12.4805 5.65963C12.9729 6.85487 13.2482 8.14396 13.2853 9.4731H9.67064V6.09921ZM9.67064 5.48783V1.72206C10.7521 2.67734 11.6161 3.82458 12.2281 5.09564C11.4002 5.33102 10.5434 5.46277 9.67064 5.48783ZM12.8132 4.90978C12.2332 3.67938 11.4283 2.55842 10.4317 1.59764C12.1997 1.8318 13.7904 2.64126 15.0155 3.83467C14.32 4.28159 13.5821 4.64108 12.8132 4.90978ZM5.92431 4.90978C5.15536 4.64108 4.41751 4.28159 3.72223 3.83467C4.94705 2.64126 6.53808 1.8318 8.30603 1.59764C7.30915 2.55842 6.50427 3.67938 5.92431 4.90978ZM5.45244 10.0845H9.06683V13.153C8.06843 13.1799 7.09027 13.3376 6.15014 13.624C5.72536 12.5067 5.48655 11.313 5.45244 10.0845ZM9.06683 13.7643V17.8355C7.90933 16.813 7.00181 15.5707 6.38472 14.1926C7.25028 13.9343 8.14934 13.7906 9.06683 13.7643ZM9.67064 17.8355V13.7643C10.5881 13.7903 11.4872 13.9343 12.3527 14.1923C11.7357 15.5707 10.8281 16.813 9.67064 17.8355ZM9.67064 13.153V10.0845H13.285C13.2509 11.313 13.0121 12.5067 12.587 13.6243C11.6472 13.3376 10.669 13.1799 9.67064 13.153ZM13.8888 10.0845H17.5126C17.4438 11.9828 16.74 13.7194 15.6085 15.0819C14.8392 14.5555 14.0184 14.1336 13.1597 13.8191C13.605 12.6394 13.8547 11.3803 13.8888 10.0845ZM3.53927 15.5398C4.25358 15.0592 5.01407 14.6729 5.80868 14.384C6.39589 15.7168 7.2388 16.9313 8.30573 17.9599C6.44872 17.7138 4.78674 16.8335 3.53927 15.5398ZM10.4317 17.9599C11.4987 16.9316 12.3416 15.7171 12.9288 14.384C13.7234 14.6729 14.4836 15.0592 15.1982 15.5398C13.9507 16.8335 12.2887 17.7138 10.4317 17.9599Z" fill="white"/>
</svg>
