<svg width="19" height="19" viewBox="0 0 19 19" fill="none" xmlns="http://www.w3.org/2000/svg">
<path d="M18.2202 17.4909L13.1336 12.3405C14.0983 11.1345 14.6791 9.60126 14.6791 7.93194C14.6791 4.06217 11.5697 0.913818 7.74785 0.913818C3.92599 0.913818 0.81665 4.06217 0.81665 7.93194C0.81665 11.8017 3.92602 14.9501 7.74789 14.9501C9.39654 14.9501 10.9108 14.362 12.1019 13.3851L17.1885 18.5356C17.331 18.6798 17.562 18.6798 17.7045 18.5356L18.2202 18.0133C18.3627 17.869 18.3627 17.6351 18.2202 17.4909ZM7.74789 13.4726C4.73044 13.4726 2.27587 10.9872 2.27587 7.93194C2.27587 4.87667 4.73044 2.39133 7.74789 2.39133C10.7653 2.39133 13.2199 4.87667 13.2199 7.93194C13.2199 10.9872 10.7653 13.4726 7.74789 13.4726Z" fill="white"/>
</svg>
